# xmcd
# Copyright (c) 1998 CDDB Inc.
#
# Track frame offsets:
#	150
#	16985
#	35902
#	49780
#	69042
#	81812
#	96435
#	110515
#	122379
#	135410
#	149332
#	164530
#	177340
#	191607
#	208035
#	224170
#	237375
#	249910
#	259137
#	274620
#	288492
#	301662
#	313765
#
# Disc length: 4332 seconds
#
# Revision: 1
# Processed by: cddbd v1.5PL3 Copyright (c) Steve Scherf et al.
# Submitted via: audiograbber 1.70
#
DISCID=5410ea17
DTITLE=Varios Artistas - O MELHOR DO SERTAO
DYEAR=1900
DGENRE=Country
TTITLE0=TIBAGI E NILTINHO - MÁGOA DE BOIADEIRO
TTITLE1=GARCIA E ZE MATAO - TERRA RÔXA
TTITLE2=TIBAGI E NILTINHO - MENINO DA PORTEIRA
TTITLE3=CHITAOZINHO E XORORO - CHITÃOZINHO E XORORÓ
TTITLE4=TIBAGI E NILTINHO - PÉ-DE-CEDRO
TTITLE5=BELMIRO E BUENO - BRASIL GIGANTE
TTITLE6=ROBERTINHO E CAROLINA - LUAR DO SERTÃO
TTITLE7=CACULA E MARINHEIRO - CASINHA PEQUENINA
TTITLE8=CHITAOZINHO E XORORO - MORENINHA LINDA
TTITLE9=TITULARES DO RITMO - SAUDADES DE MATÃO
TTITLE10=LEONCIO E LEONEL - VELHO CATIREIRO
TTITLE11=SULINO E MARRUEIRO - TENHO FOME E TENHO SEDE
TTITLE12=SILVEIRA E SILVEIRINHA - TESTAMENTO DE UM POBRE VELHO
TTITLE13=HELIO RIOS - É DISSO QUE O VELHO GOSTA
TTITLE14=TIBAGI E NILTINHO - MILAGRE DAS ROSAS
TTITLE15=BELMIRO E BADALO - PINGO D'AGUA
TTITLE16=BELMIRO E BADALO - SAUDADES DE MINHA TERRA
TTITLE17=PEDRO BENTO E ZE DA ESTRADA - RANCHINHO DE TAQUARA
TTITLE18=BELMIRO E BADALO - FELIZ SEMEADOR
TTITLE19=MOCOCA E MORACI - VELHO SOZINHO
TTITLE20=ZE PAGAO E FAUSTINO - MENINA DE ESCOLA
TTITLE21=NESTOR E NESTORZINHO - JOÃO DE BARRO
TTITLE22=IRMAS GALVAO - CANTA COM A NATUREZA
EXTD=kiroiva@hotmail.com
EXTT0=
EXTT1=
EXTT2=
EXTT3=
EXTT4=
EXTT5=
EXTT6=
EXTT7=
EXTT8=
EXTT9=
EXTT10=
EXTT11=
EXTT12=
EXTT13=
EXTT14=
EXTT15=
EXTT16=
EXTT17=
EXTT18=
EXTT19=
EXTT20=
EXTT21=
EXTT22=
PLAYORDER=
